<?xml version="1.0" standalone="no"?>
<!DOCTYPE svg PUBLIC "-//W3C//DTD SVG 20010904//EN"
 "http://www.w3.org/TR/2001/REC-SVG-20010904/DTD/svg10.dtd">
<svg version="1.0" xmlns="http://www.w3.org/2000/svg"
 width="231.000000pt" height="258.000000pt" viewBox="0 0 231.000000 258.000000"
 preserveAspectRatio="xMidYMid meet">

<g transform="translate(0.000000,258.000000) scale(0.100000,-0.100000)"
fill="#000000" stroke="none">
<path d="M15 2557 c-3 -7 -4 -120 -3 -252 l3 -240 124 -5 125 -5 111 -180 c61
-99 157 -255 213 -347 l102 -168 -210 0 -210 0 0 65 0 65 -125 0 -125 0 2
-322 3 -323 122 -3 122 -3 3 68 3 68 312 3 313 2 0 -229 0 -230 -87 -3 -88 -3
0 -250 0 -250 430 0 430 0 0 250 0 250 -87 3 -88 3 0 230 0 229 313 -2 312 -3
3 -68 3 -68 122 3 122 3 3 323 2 322 -125 0 -125 0 0 -65 0 -65 -210 0 -210 0
84 138 c46 75 142 232 213 347 l129 210 127 3 127 3 -2 252 -3 252 -435 0
-435 0 -3 -248 c-2 -244 -2 -249 18 -254 12 -3 20 -9 18 -13 -6 -16 -302 -499
-304 -497 -4 4 -304 500 -304 502 0 2 9 5 20 8 20 5 20 12 18 254 l-3 248
-433 3 c-344 2 -434 0 -437 -11z"/>
</g>
</svg>
